<svg xmlns="http://www.w3.org/2000/svg">
    <symbol viewBox="0 0 82 46" id="player-vs-player">
        <circle cx="59" cy="23" r="23" fill="black"/>
        <circle cx="59" cy="23" r="20" fill="#FFCE67"/>
        <path d="M74.5833 21.2083C74.5833 27.5595 69.4346 32.7083 63.0833 32.7083C56.732 32.7083 51.5833 27.5595 51.5833 21.2083H54.5833C54.5833 25.9027 58.3889 29.7083 63.0833 29.7083C67.7777 29.7083 71.5833 25.9027 71.5833 21.2083H74.5833Z"
              fill="black"/>
        <path d="M62.375 14.6666V19.6536H59.375V14.6666H62.375Z" fill="black"/>
        <path d="M70.7083 14.6666V19.6536H67.7083V14.6666H70.7083Z" fill="black"/>
        <circle cx="23" cy="23" r="23" fill="black"/>
        <circle cx="23" cy="23" r="20" fill="#FFCE67"/>
        <path d="M38.5833 21.2083C38.5833 27.5595 33.4346 32.7083 27.0833 32.7083C20.732 32.7083 15.5833 27.5595 15.5833 21.2083H18.5833C18.5833 25.9027 22.3889 29.7083 27.0833 29.7083C31.7777 29.7083 35.5833 25.9027 35.5833 21.2083H38.5833Z"
              fill="black"/>
        <path d="M26.375 14.6666V19.6536H23.375V14.6666H26.375Z" fill="black"/>
        <path d="M34.7083 14.6666V19.6536H31.7083V14.6666H34.7083Z" fill="black"/>
    </symbol>

    <symbol viewBox="0 0 54 59" id="player-one">
        <circle cx="27" cy="27" r="27" fill="black"/>
        <circle cx="27" cy="32" r="27" fill="black"/>
        <circle cx="27" cy="27" r="24" fill="#FD6687"/>
        <path d="M45.25 25C45.25 32.4558 39.2058 38.5 31.75 38.5C24.2942 38.5 18.25 32.4558 18.25 25H21.25C21.25 30.799 25.951 35.5 31.75 35.5C37.549 35.5 42.25 30.799 42.25 25H45.25Z"
              fill="black"/>
        <path d="M30.75 17V22.9844H27.75V17H30.75Z" fill="black"/>
        <path d="M40.75 17V22.9844H37.75V17H40.75Z" fill="black"/>
    </symbol>

    <symbol viewBox="0 0 54 59" id="player-two">
        <circle r="27" transform="matrix(-1 0 0 1 27 27)" fill="black"/>
        <circle r="27" transform="matrix(-1 0 0 1 27 32)" fill="black"/>
        <circle r="24" transform="matrix(-1 0 0 1 27 27)" fill="#FFCE67"/>
        <path d="M8.75 25C8.75 32.4558 14.7942 38.5 22.25 38.5C29.7058 38.5 35.75 32.4558 35.75 25H32.75C32.75 30.799 28.049 35.5 22.25 35.5C16.451 35.5 11.75 30.799 11.75 25H8.75Z"
              fill="black"/>
        <path d="M23.25 17V22.9844H26.25V17H23.25Z" fill="black"/>
        <path d="M13.25 17V22.9844H16.25V17H13.25Z" fill="black"/>
    </symbol>

    <symbol viewBox="0 0 34 34" id="white-circle">
        <circle cx="17" cy="17" r="14" stroke="white" stroke-width="6" fill="none"/>
    </symbol>

    <symbol viewBox="0 0 38 36" id="pointer">
        <g filter="url(#filter0_d_5_5709)">
            <path fill-rule="evenodd" clip-rule="evenodd" d="M3 14.6159C3 16.194 3.74501 17.6795 5.0098 18.6233L15.9416 26.7804C17.708 28.0984 20.129 28.1045 21.9019 26.7953L32.9701 18.6225C34.2467 17.6799 35 16.1872 35 14.6002V8C35 5.23858 32.7614 3 30 3H8C5.23858 3 3 5.23858 3 8V14.6159Z" fill="#FD6687"/>
            <path d="M4.11274 19.8255C2.46852 18.5986 1.5 16.6675 1.5 14.6159V8C1.5 4.41015 4.41015 1.5 8 1.5H30C33.5899 1.5 36.5 4.41015 36.5 8V14.6002C36.5 16.6632 35.5207 18.6037 33.8611 19.8292L22.7929 28.002C20.4881 29.7039 17.3408 29.696 15.0446 27.9826L4.11274 19.8255Z" stroke="black" stroke-width="3"/>
        </g>
        <defs>
            <filter id="filter0_d_5_5709" x="0" y="0" width="38" height="35.7731" filterUnits="userSpaceOnUse" color-interpolation-filters="sRGB">
                <feFlood flood-opacity="0" result="BackgroundImageFix"/>
                <feColorMatrix in="SourceAlpha" type="matrix" values="0 0 0 0 0 0 0 0 0 0 0 0 0 0 0 0 0 0 127 0" result="hardAlpha"/>
                <feOffset dy="5"/>
                <feColorMatrix type="matrix" values="0 0 0 0 0 0 0 0 0 0 0 0 0 0 0 0 0 0 1 0"/>
                <feBlend mode="normal" in2="BackgroundImageFix" result="effect1_dropShadow_5_5709"/>
                <feBlend mode="normal" in="SourceGraphic" in2="effect1_dropShadow_5_5709" result="shape"/>
            </filter>
        </defs>
    </symbol>
</svg>
